<svg id="Order" height="512" viewBox="0 0 64 64" width="512" xmlns="http://www.w3.org/2000/svg"
    xmlns:xlink="http://www.w3.org/1999/xlink">
    <linearGradient id="linear-gradient" gradientUnits="userSpaceOnUse" x1="1.78" x2="64.023" y1="62.22" y2="-.023">
        <stop offset="0" stop-color="#fcd6e2" />
        <stop offset=".6" stop-color="#ccffff" />
        <stop offset="1" stop-color="#fcd6e2" />
    </linearGradient>
    <linearGradient id="linear-gradient-2" x1="9.53" x2="71.773" xlink:href="#linear-gradient" y1="69.97" y2="7.727" />
    <linearGradient id="linear-gradient-3" x1="13.03" x2="75.273" xlink:href="#linear-gradient" y1="73.47"
        y2="11.227" />
    <linearGradient id="linear-gradient-4" x1="-4.495" x2="57.747" xlink:href="#linear-gradient" y1="55.944"
        y2="-6.299" />
    <linearGradient id="linear-gradient-5" x1=".03" x2="62.273" xlink:href="#linear-gradient" y1="60.47" y2="-1.773" />
    <linearGradient id="linear-gradient-6" x1="4.78" x2="67.023" xlink:href="#linear-gradient" y1="65.22" y2="2.977" />
    <linearGradient id="linear-gradient-7" x1="7.28" x2="69.523" xlink:href="#linear-gradient" y1="67.72" y2="5.477" />
    <linearGradient id="linear-gradient-8" x1="7.53" x2="69.773" xlink:href="#linear-gradient" y1="67.97" y2="5.727" />
    <path
        d="m46 1h-28a5.006 5.006 0 0 0 -5 5v52a5.006 5.006 0 0 0 5 5h28a5.006 5.006 0 0 0 5-5v-52a5.006 5.006 0 0 0 -5-5zm-7.477 2-1.2 3h-10.646l-1.2-3zm10.477 55a3 3 0 0 1 -3 3h-28a3 3 0 0 1 -3-3v-52a3 3 0 0 1 3-3h5.323l1.748 4.372a1 1 0 0 0 .929.628h12a1 1 0 0 0 .929-.628l1.748-4.372h5.323a3 3 0 0 1 3 3z"
        fill="url(#linear-gradient)" />
    <path d="m25 57h-7a1 1 0 0 0 0 2h7a1 1 0 0 0 0-2z" fill="url(#linear-gradient-2)" />
    <path d="m29 57h-1a1 1 0 0 0 0 2h1a1 1 0 0 0 0-2z" fill="url(#linear-gradient-3)" />
    <path
        d="m26.03 25.851a.914.914 0 0 0 -.03.149v6a1 1 0 0 0 2 0v-6a.914.914 0 0 0 -.03-.149 4.427 4.427 0 0 0 3.03-4.351 4.277 4.277 0 0 0 -4-4.5 4.277 4.277 0 0 0 -4 4.5 4.427 4.427 0 0 0 3.03 4.351zm.97-6.851a2.3 2.3 0 0 1 2 2.5 2.3 2.3 0 0 1 -2 2.5 2.3 2.3 0 0 1 -2-2.5 2.3 2.3 0 0 1 2-2.5z"
        fill="url(#linear-gradient-4)" />
    <path
        d="m40 17a1 1 0 0 0 -1 1v4a1 1 0 0 1 -1 1v-5a1 1 0 0 0 -2 0v5a1 1 0 0 1 -1-1v-4a1 1 0 0 0 -2 0v4a3 3 0 0 0 3 3v7a1 1 0 0 0 2 0v-7a3 3 0 0 0 3-3v-4a1 1 0 0 0 -1-1z"
        fill="url(#linear-gradient-5)" />
    <path d="m40 35h-16a1 1 0 0 0 -1 1v4a1 1 0 0 0 1 1h16a1 1 0 0 0 1-1v-4a1 1 0 0 0 -1-1zm-1 4h-14v-2h14z"
        fill="url(#linear-gradient-6)" />
    <path d="m40 42h-16a1 1 0 0 0 0 2h16a1 1 0 0 0 0-2z" fill="url(#linear-gradient-7)" />
    <path d="m35 45h-11a1 1 0 0 0 0 2h11a1 1 0 0 0 0-2z" fill="url(#linear-gradient-8)" />
</svg>