<svg id="Gradient" height="512" viewBox="0 0 512 512" width="512" xmlns="http://www.w3.org/2000/svg"
    xmlns:xlink="http://www.w3.org/1999/xlink">
    <linearGradient id="linear-gradient" gradientUnits="userSpaceOnUse" x1="256" x2="256" y1="472" y2="40">
        <stop offset="0" stop-color="#12c2e9" />
        <stop offset=".5" stop-color="#ccffff" />
        <stop offset="1" stop-color="#fcd6e2" />
    </linearGradient>
    <path
        d="m184 144h-96a8 8 0 0 0 -8 8v96a8 8 0 0 0 8 8h96a8 8 0 0 0 8-8v-96a8 8 0 0 0 -8-8zm-56 16h16v36.687l-2.343-2.344a8 8 0 0 0 -11.314 0l-2.343 2.344zm-32 0h16v16h-16zm80 80h-80v-48h16v24a8 8 0 0 0 13.657 5.657l10.343-10.344 10.343 10.344a8 8 0 0 0 13.657-5.657v-24h16zm0-64h-16v-16h16zm112-48a24 24 0 1 0 -32 22.624v18.752a24 24 0 0 0 0 45.248v18.752a24 24 0 1 0 16 0v-18.752a24 24 0 0 0 0-45.248v-18.752a24.039 24.039 0 0 0 16-22.624zm-24 136a8 8 0 1 1 8-8 8.009 8.009 0 0 1 -8 8zm0-64a8 8 0 1 1 8-8 8.009 8.009 0 0 1 -8 8zm0-64a8 8 0 1 1 8-8 8.009 8.009 0 0 1 -8 8zm136-8a8 8 0 0 1 -8 8h-80a8 8 0 0 1 0-16h80a8 8 0 0 1 8 8zm48 0a8 8 0 0 1 -8 8h-16a8 8 0 0 1 0-16h16a8 8 0 0 1 8 8zm-48 64a8 8 0 0 1 -8 8h-80a8 8 0 0 1 0-16h80a8 8 0 0 1 8 8zm48 0a8 8 0 0 1 -8 8h-16a8 8 0 0 1 0-16h16a8 8 0 0 1 8 8zm-48 64a8 8 0 0 1 -8 8h-80a8 8 0 0 1 0-16h80a8 8 0 0 1 8 8zm48 0a8 8 0 0 1 -8 8h-16a8 8 0 0 1 0-16h16a8 8 0 0 1 8 8zm8-216h-400a40.045 40.045 0 0 0 -40 40v272a40.045 40.045 0 0 0 40 40h126.241l-14.086 70.431a8 8 0 0 0 7.845 9.569h160a8 8 0 0 0 7.845-9.569l-14.086-70.431h126.241a40.045 40.045 0 0 0 40-40v-272a40.045 40.045 0 0 0 -40-40zm-270.241 416 12.8-64h114.882l12.8 64zm294.241-104a24.028 24.028 0 0 1 -24 24h-400a24.028 24.028 0 0 1 -24-24v-24h448zm0-40h-448v-232a24.028 24.028 0 0 1 24-24h400a24.028 24.028 0 0 1 24 24zm-400-232a8 8 0 1 1 -8-8 8 8 0 0 1 8 8zm16 0a8 8 0 1 1 8 8 8 8 0 0 1 -8-8zm32 0a8 8 0 1 1 8 8 8 8 0 0 1 -8-8zm112 272a8 8 0 0 1 8-8h16a8 8 0 0 1 0 16h-16a8 8 0 0 1 -8-8z"
        fill="url(#linear-gradient)" />
</svg>