<svg height="512" viewBox="0 0 128 128" width="512" xmlns="http://www.w3.org/2000/svg" data-name="Layer 1">
    <linearGradient id="prefix__a" gradientUnits="userSpaceOnUse" x1="99.476" x2="28.883" y1="118.713" y2="48.12">
        <stop offset="0" stop-color="#66ffff" />
        <stop offset="1" stop-color="#fcd6e2" />
    </linearGradient>
    <path
        d="M86 96.527a1.75 1.75 0 010-3.5h1.667a1.75 1.75 0 010 3.5zm28-1.75v8.687a1.75 1.75 0 01-1.75 1.75h-96.5a1.75 1.75 0 01-1.75-1.75v-8.687a1.75 1.75 0 011.75-1.75h63.583a1.75 1.75 0 010 3.5H17.5v5.187h93v-5.187H94.833a1.75 1.75 0 010-3.5h9.721A40.6 40.6 0 0023.965 88a1.75 1.75 0 11-3.451-.58 43.91 43.91 0 0137.035-36.268 6.453 6.453 0 0112.9 0 44.164 44.164 0 0137.6 41.872h4.2A1.75 1.75 0 01114 94.777zm-50-44.1a44.4 44.4 0 012.907.107 2.949 2.949 0 00-5.815 0A44.485 44.485 0 0164 50.679zm7.8-14.126a1.75 1.75 0 102.482 2.467 7.511 7.511 0 00.572-9.282c-1.507-2.458-.477-3.483-.115-3.744a1.75 1.75 0 00-1.908-2.934c-1.536.977-3.715 4.014-.961 8.506 1.775 2.89.113 4.797-.07 4.989zm-9.377 0a1.75 1.75 0 102.487 2.469 7.511 7.511 0 00.572-9.282c-1.507-2.458-.476-3.483-.115-3.744a1.75 1.75 0 00-1.908-2.934c-1.536.977-3.715 4.014-.961 8.506 1.771 2.888.108 4.795-.07 4.987zm-9.377 0a1.75 1.75 0 102.482 2.467 7.511 7.511 0 00.572-9.282c-1.507-2.458-.477-3.483-.115-3.744a1.75 1.75 0 00-1.908-2.934c-1.536.977-3.715 4.014-.961 8.506 1.776 2.89.113 4.797-.065 4.989z"
        fill="url(#prefix__a)" />
</svg>