<svg height="576" viewBox="-43 0 432 432" width="576" xmlns="http://www.w3.org/2000/svg"
    xmlns:xlink="http://www.w3.org/1999/xlink">
    <linearGradient id="prefix__a">
        <stop offset=".322" stop-color="#ccffff" />
        <stop offset=".466" stop-color="#ccffff" />
        <stop offset=".752" stop-color="#efbad3" />
        <stop offset=".898" stop-color="#ccffff" />
    </linearGradient>
    <linearGradient id="prefix__b" gradientUnits="userSpaceOnUse" x1="172.8" x2="172.8" xlink:href="#prefix__a"
        y1="442.814" y2="-20.021" />
    <linearGradient id="prefix__c" gradientUnits="userSpaceOnUse" x1="257.271" x2="257.271" xlink:href="#prefix__a"
        y1="442.814" y2="-20.021" />
    <linearGradient id="prefix__d" gradientUnits="userSpaceOnUse" x1="200.957" x2="200.957" xlink:href="#prefix__a"
        y1="442.814" y2="-20.021" />
    <linearGradient id="prefix__e" gradientUnits="userSpaceOnUse" x1="144.643" x2="144.643" xlink:href="#prefix__a"
        y1="442.814" y2="-20.021" />
    <linearGradient id="prefix__f" gradientUnits="userSpaceOnUse" x1="88.329" x2="88.329" xlink:href="#prefix__a"
        y1="442.814" y2="-20.021" />
    <linearGradient id="prefix__g" gradientUnits="userSpaceOnUse" x1="108.234" x2="108.234" xlink:href="#prefix__a"
        y1="442.814" y2="-20.021" />
    <linearGradient id="prefix__h" gradientUnits="userSpaceOnUse" x1="284.33" x2="284.33" xlink:href="#prefix__a"
        y1="442.814" y2="-20.021" />
    <linearGradient id="prefix__i" gradientUnits="userSpaceOnUse" x1="231.545" x2="231.545" xlink:href="#prefix__a"
        y1="442.814" y2="-20.021" />
    <linearGradient id="prefix__j" gradientUnits="userSpaceOnUse" x1="263.346" x2="263.346" xlink:href="#prefix__a"
        y1="442.814" y2="-20.021" />
    <linearGradient id="prefix__k" gradientUnits="userSpaceOnUse" x1="210.561" x2="210.561" xlink:href="#prefix__a"
        y1="442.814" y2="-20.021" />
    <linearGradient id="prefix__l" gradientUnits="userSpaceOnUse" x1="151.943" x2="151.943" xlink:href="#prefix__a"
        y1="442.814" y2="-20.021" />
    <linearGradient id="prefix__m" gradientUnits="userSpaceOnUse" x1="90.701" x2="90.701" xlink:href="#prefix__a"
        y1="442.814" y2="-20.021" />
    <linearGradient id="prefix__n" gradientUnits="userSpaceOnUse" x1="62.179" x2="62.179" xlink:href="#prefix__a"
        y1="442.814" y2="-20.021" />
    <path
        d="M257.27 194.207c-11.883.012-21.516 9.645-21.528 21.527 0 .055.008.11.008.164l-20.691 18.965a21.508 21.508 0 00-25.97-1.746 21.497 21.497 0 00-8.624 24.555l-18.926 15.96a21.453 21.453 0 00-16.035-8.214 21.458 21.458 0 00-16.64 6.914l-19.376-13.492c1.969-10.563-4.129-20.969-14.308-24.414-10.18-3.45-21.344 1.113-26.2 10.703-4.851 9.59-1.918 21.289 6.887 27.45 8.805 6.163 20.801 4.917 28.149-2.927L123.46 283.2a21.508 21.508 0 008.34 21.004 21.515 21.515 0 0022.511 1.969 21.51 21.51 0 0011.86-19.235c0-.488-.04-.964-.074-1.445l21.129-17.82a21.506 21.506 0 0025.546 1.46 21.5 21.5 0 008.856-24.003l18.262-16.738c5.976 8.21 16.886 11.125 26.16 6.988a21.52 21.52 0 0012.277-24.137c-2.117-9.937-10.894-17.035-21.055-17.031zM88.328 264.484c-5.262 0-9.527-4.265-9.527-9.53 0-5.263 4.265-9.528 9.531-9.528a9.527 9.527 0 019.527 9.527 9.544 9.544 0 01-9.53 9.531zm56.317 31.977c-5.266 0-9.532-4.266-9.532-9.527 0-5.262 4.266-9.532 9.532-9.532 5.261 0 9.527 4.27 9.527 9.532-.008 5.257-4.27 9.523-9.527 9.527zm56.312-35.836c-5.262 0-9.531-4.266-9.531-9.531 0-5.262 4.27-9.528 9.531-9.528a9.53 9.53 0 019.531 9.532c-.008 5.261-4.27 9.523-9.531 9.527zm56.313-35.36c-5.262 0-9.528-4.265-9.528-9.53a9.527 9.527 0 019.528-9.528c5.265 0 9.53 4.266 9.53 9.527a9.544 9.544 0 01-9.53 9.532zm0 0"
        fill="url(#prefix__b)" />
    <path
        d="M271.023 251.387h-27.5c-3.316 0-6 2.687-6 6v116.406c0 3.312 2.684 6 6 6h27.5c3.313 0 6-2.688 6-6V257.387c0-3.313-2.687-6-6-6zm-6 116.406h-15.5V263.387h15.5zm0 0"
        fill="url(#prefix__c)" />
    <path
        d="M214.707 286.605h-27.5c-3.312 0-6 2.688-6 6v81.188c0 3.312 2.688 6 6 6h27.5c3.316 0 6-2.688 6-6v-81.188c0-3.312-2.684-6-6-6zm-6 81.188h-15.5v-69.188h15.5zm0 0"
        fill="url(#prefix__d)" />
    <path
        d="M158.398 322.773h-27.5c-3.312 0-6 2.684-6 6v45.02c0 3.312 2.688 6 6 6h27.5c3.317 0 6-2.688 6-6v-45.02c0-3.316-2.683-6-6-6zm-6 45.02h-15.5v-33.02h15.5zm0 0"
        fill="url(#prefix__e)" />
    <path
        d="M102.078 290.941h-27.5c-3.312 0-6 2.688-6 6v76.852c0 3.312 2.688 6 6 6h27.5c3.317 0 6-2.688 6-6v-76.852c0-3.312-2.683-6-6-6zm-6 76.852h-15.5v-64.852h15.5zm0 0"
        fill="url(#prefix__f)" />
    <path
        d="M318.074 19.82h-36.422V6c0-3.312-2.687-6-6-6H80.711c-3.316 0-6 2.688-6 6v13.82H27.527C12.332 19.836.02 32.148 0 47.344v357.133C.02 419.672 12.332 431.984 27.527 432h290.547c15.196-.016 27.508-12.328 27.528-27.523V47.344c-.02-15.196-12.332-27.508-27.528-27.524zM86.711 12h182.941v25.008H86.711zM333.6 404.477c-.011 8.57-6.956 15.515-15.527 15.523H27.527c-8.57-.008-15.515-6.953-15.527-15.523V47.344c.012-8.57 6.953-15.512 15.523-15.524h47.184v11.188c0 3.312 2.684 6 6 6h194.945c3.313 0 6-2.688 6-6V31.82h36.422c8.57.008 15.516 6.953 15.528 15.524zm0 0"
        fill="url(#prefix__b)" />
    <path
        d="M59.188 169.09h98.093c3.313 0 6-2.688 6-6v-53.805c0-3.312-2.687-6-6-6H59.187c-3.312 0-6 2.688-6 6v53.805c0 3.312 2.688 6 6 6zm6-53.805h86.093v41.805H65.187zm0 0"
        fill="url(#prefix__g)" />
    <path d="M286.414 157.09h-4.168a6.001 6.001 0 000 12h4.168c3.313 0 6-2.688 6-6s-2.687-6-6-6zm0 0"
        fill="url(#prefix__h)" />
    <path d="M208.66 169.09h45.77c3.312 0 6-2.688 6-6s-2.688-6-6-6h-45.77c-3.316 0-6 2.687-6 6s2.684 6 6 6zm0 0"
        fill="url(#prefix__i)" />
    <path d="M286.414 103.285h-46.137c-3.312 0-6 2.688-6 6s2.688 6 6 6h46.137a6.001 6.001 0 000-12zm0 0"
        fill="url(#prefix__j)" />
    <path d="M208.66 115.285h3.8a6.001 6.001 0 000-12h-3.8c-3.316 0-6 2.688-6 6s2.684 6 6 6zm0 0"
        fill="url(#prefix__k)" />
    <path
        d="M110.605 213.09c0 3.312 2.688 6 6 6h70.676c3.313 0 6-2.688 6-6s-2.687-6-6-6h-70.676c-3.312 0-6 2.687-6 6zm0 0"
        fill="url(#prefix__l)" />
    <path d="M86.758 207.09a6.001 6.001 0 000 12h7.887c3.312 0 6-2.688 6-6s-2.688-6-6-6zm0 0" fill="url(#prefix__m)" />
    <path d="M71.172 213.09c0-3.313-2.688-6-6-6h-5.984a6.001 6.001 0 000 12h5.984c3.312 0 6-2.688 6-6zm0 0"
        fill="url(#prefix__n)" />
</svg>